<?xml version="1.0" standalone="no"?>
<!DOCTYPE svg PUBLIC "-//W3C//DTD SVG 20010904//EN"
 "http://www.w3.org/TR/2001/REC-SVG-20010904/DTD/svg10.dtd">
<svg version="1.0" xmlns="http://www.w3.org/2000/svg"
 width="355.000000pt" height="355.000000pt" viewBox="0 0 355.000000 355.000000"
 preserveAspectRatio="xMidYMid meet">

<g transform="translate(0.000000,355.000000) scale(0.100000,-0.100000)"
fill="#000000" stroke="none">
<path d="M1121 3510 c-73 -40 -83 -50 -133 -134 -23 -39 -72 -111 -108 -161
-113 -154 -132 -185 -180 -294 -39 -88 -49 -124 -60 -213 -14 -118 -9 -325 9
-372 9 -21 8 -44 -1 -90 -10 -56 -17 -67 -80 -131 l-68 -70 0 -59 c0 -32 7
-85 16 -119 10 -39 13 -77 9 -108 -7 -47 -6 -49 40 -98 26 -28 54 -51 63 -51
8 0 32 -19 53 -42 36 -39 39 -41 63 -29 30 16 139 8 192 -14 39 -16 58 -54 48
-97 -3 -16 -29 -60 -57 -96 -62 -83 -69 -126 -38 -253 12 -48 21 -100 21 -116
0 -17 11 -46 24 -66 38 -55 40 -74 14 -98 -40 -36 -199 -130 -306 -181 -56
-26 -135 -72 -175 -103 -79 -59 -192 -118 -359 -186 l-108 -44 0 -129 0 -130
28 26 c75 71 299 188 482 253 130 46 186 81 252 157 64 73 144 127 242 163
l75 27 29 -21 c17 -11 44 -21 60 -21 27 0 32 -5 44 -42 l13 -43 50 3 c97 4
127 -5 159 -49 24 -34 28 -47 23 -81 -7 -49 -35 -90 -68 -99 -47 -13 -124 -9
-165 10 -22 10 -83 28 -134 41 -103 24 -138 39 -190 81 -61 51 -105 33 -144
-57 -30 -69 -17 -84 92 -113 24 -7 60 -27 81 -46 44 -40 67 -50 141 -60 30 -4
61 -12 67 -17 8 -7 13 -35 13 -74 l0 -64 95 0 95 0 0 54 c0 59 7 66 65 66 40
0 50 -11 65 -73 11 -41 16 -47 39 -47 25 0 28 5 46 71 17 68 20 73 68 101 35
22 62 51 93 99 43 67 75 97 168 152 26 15 44 32 41 37 -8 13 -19 7 -165 -87
-99 -62 -121 -81 -148 -127 -18 -29 -46 -65 -62 -80 -17 -14 -30 -33 -30 -41
0 -8 -7 -15 -15 -15 -32 0 -47 98 -17 108 9 3 12 -3 10 -14 -5 -31 16 -29 32
3 24 48 140 173 166 179 13 3 24 10 24 15 0 25 -57 -10 -124 -78 -69 -68 -99
-79 -117 -39 -8 18 -7 30 4 53 9 16 18 62 22 103 4 41 13 84 19 95 30 50 27
60 -9 25 -47 -46 -53 -35 -47 93 3 82 8 106 23 123 24 26 25 49 2 39 -10 -4
-30 -10 -44 -12 -22 -4 -28 0 -33 21 -5 19 -13 26 -30 26 -27 0 -56 44 -39 61
8 8 6 22 -4 49 -14 34 -20 39 -52 42 -35 3 -36 4 -39 48 -2 29 -11 51 -23 63
-21 20 -20 35 9 97 10 20 33 44 55 56 79 44 118 162 78 239 -24 44 -30 158 -9
171 15 10 69 -51 62 -71 -3 -8 4 -62 16 -120 12 -59 23 -141 25 -183 2 -67 5
-77 21 -77 20 0 22 -19 9 -62 -6 -18 -2 -25 16 -32 30 -11 82 -66 103 -108 10
-20 30 -39 51 -47 19 -8 35 -19 35 -24 0 -5 -27 -19 -59 -31 -32 -12 -62 -28
-65 -36 -7 -20 6 -19 75 6 60 22 92 51 184 166 47 59 142 126 165 117 41 -17
89 -15 150 6 74 26 203 50 269 50 35 0 60 -9 113 -40 37 -22 76 -52 85 -66 10
-14 48 -63 84 -108 63 -79 89 -117 89 -131 0 -9 -66 -35 -89 -35 -15 0 -21 9
-26 40 -6 33 -11 41 -33 45 -49 10 -76 30 -125 90 -35 44 -56 62 -80 66 -18 4
-39 9 -49 13 -11 5 -27 -3 -50 -23 l-33 -30 -32 31 c-37 36 -58 32 -68 -11 -7
-33 -22 -41 -31 -16 -10 24 -21 17 -28 -17 -12 -62 -46 -79 -46 -23 0 19 -4
35 -10 35 -5 0 -32 -22 -60 -49 -44 -42 -50 -54 -50 -88 0 -63 -57 -120 -167
-169 -48 -21 -90 -43 -92 -49 -2 -5 -22 -27 -45 -49 l-41 -38 39 16 c21 9 64
31 95 50 31 18 84 44 119 57 86 33 127 68 147 129 16 47 42 69 65 55 5 -3 14
-24 20 -45 6 -22 16 -40 23 -40 25 0 55 31 75 78 24 56 49 82 57 61 2 -8 6
-36 7 -64 2 -37 7 -50 18 -50 12 0 16 15 18 67 3 80 21 90 46 28 12 -30 21
-40 39 -40 29 0 47 18 47 47 0 13 3 23 8 23 18 0 173 -144 178 -165 10 -41 26
-46 72 -23 26 14 46 18 52 12 12 -12 16 -98 6 -149 -6 -36 -6 -38 7 -22 17 21
40 131 35 167 -4 35 13 38 36 7 14 -19 20 -41 19 -74 -1 -46 -33 -136 -53
-148 -16 -10 -11 -86 10 -153 27 -87 26 -143 -6 -210 l-26 -54 22 -59 c14 -37
20 -68 16 -85 -6 -22 -4 -25 15 -22 38 5 43 54 12 107 -26 44 -26 44 -9 97 9
29 21 56 26 59 15 9 12 109 -5 196 -16 86 -9 134 25 164 20 18 21 18 46 -8 13
-15 35 -29 47 -32 12 -3 58 -12 102 -21 100 -20 127 -34 255 -137 58 -46 129
-96 158 -111 l52 -26 0 30 c0 26 -6 32 -56 56 -34 16 -89 58 -140 107 -132
126 -163 143 -282 157 -40 4 -83 15 -96 23 -13 9 -34 42 -46 74 -33 81 -77
149 -166 250 -41 49 -80 99 -85 112 -7 17 -5 47 8 100 9 42 17 87 18 101 0 14
9 51 19 83 16 52 16 73 6 246 -8 135 -8 195 -1 210 14 25 14 73 -1 182 l-12
89 32 37 c75 89 132 252 132 381 0 76 -11 95 -87 152 -46 34 -73 46 -142 61
-143 31 -225 56 -232 70 -4 8 -19 53 -33 101 -15 48 -37 99 -50 115 -13 15
-30 42 -39 59 -9 17 -29 39 -44 49 -15 10 -50 40 -78 65 -98 91 -254 157 -521
220 -56 13 -111 33 -140 52 -79 50 -145 68 -248 68 -82 0 -96 -3 -145 -30z
m1213 -1216 c28 -19 46 -25 68 -20 17 3 45 -1 66 -9 19 -9 70 -18 111 -22 60
-5 80 -11 99 -30 21 -21 23 -30 20 -105 l-3 -82 -49 -12 c-139 -36 -238 -180
-220 -322 3 -31 20 -93 36 -137 64 -174 5 -284 -112 -210 -50 32 -84 32 -122
0 l-30 -25 -29 21 c-31 22 -32 23 -23 56 4 16 21 27 55 38 27 9 49 20 49 24 0
15 -25 31 -51 31 -38 0 -71 -30 -107 -97 -44 -84 -76 -121 -178 -207 -49 -41
-100 -92 -113 -111 -29 -42 -74 -69 -102 -60 -20 7 -95 82 -136 137 -13 18
-23 46 -23 63 0 19 -8 39 -20 50 -11 10 -20 28 -20 41 0 12 -9 60 -20 106 -11
46 -20 106 -20 133 0 54 -16 125 -28 125 -15 0 -63 110 -72 163 -11 72 -34
123 -59 137 -26 14 -18 33 45 100 38 40 47 46 77 42 22 -2 38 2 46 12 10 12
32 16 88 16 80 0 127 15 175 55 16 14 37 25 45 25 9 0 24 7 34 16 14 13 24 13
58 4 39 -10 46 -9 94 19 44 25 63 30 119 30 37 0 70 -4 73 -10 10 -16 41 -10
86 16 24 14 46 25 49 25 3 0 23 -12 44 -26z m-1017 -410 c29 -64 40 -128 24
-138 -6 -4 -20 -2 -31 4 -16 9 -20 21 -20 68 0 36 -6 66 -16 80 -15 22 -12 42
7 42 6 0 22 -25 36 -56z m1348 1 c0 -9 -142 -25 -151 -16 -2 2 1 10 8 18 13
16 143 14 143 -2z m-1412 -42 c8 -48 3 -53 -45 -53 -33 0 -46 -6 -73 -35 -37
-38 -59 -92 -52 -127 3 -19 7 -16 25 24 35 73 96 110 130 76 21 -21 13 -51
-24 -89 -46 -47 -41 -76 19 -120 23 -17 48 -41 54 -54 7 -13 22 -26 33 -30 15
-5 20 -15 20 -38 0 -38 -7 -50 -38 -66 -39 -21 -67 -6 -101 53 -21 38 -43 61
-73 78 -63 34 -72 61 -76 211 l-4 128 42 -3 c36 -2 46 3 83 40 52 53 72 54 80
5z m1305 -76 c3 -12 -3 -17 -22 -17 -25 0 -35 18 -19 34 12 12 38 2 41 -17z
m140 -10 c3 -14 -1 -18 -20 -15 -12 2 -24 11 -26 21 -3 14 1 18 20 15 12 -2
24 -11 26 -21z m-162 -72 c31 -29 78 -33 112 -9 45 31 65 -15 63 -146 -1 -54
-10 -132 -21 -180 -10 -47 -22 -102 -25 -123 -5 -32 -10 -38 -27 -35 -16 2
-27 19 -45 73 -13 38 -34 80 -47 92 -17 15 -27 38 -31 70 -6 50 -34 188 -43
212 -4 10 2 12 26 6 39 -8 42 8 7 31 -14 9 -25 20 -25 25 0 17 29 9 56 -16z
m-1236 -64 c13 -25 13 -81 0 -81 -30 0 -60 25 -60 50 0 46 40 67 60 31z m1031
-307 c37 -19 33 -36 -11 -45 -40 -9 -70 4 -70 30 0 35 31 41 81 15z m-159 -24
c21 -28 16 -56 -10 -64 -10 -3 -43 -8 -74 -12 -70 -8 -73 1 -22 63 42 51 75
55 106 13z m378 -2 c39 -65 18 -87 -46 -47 -39 24 -40 26 -18 57 21 31 41 28
64 -10z m-360 -377 c0 -21 -13 -41 -26 -41 -15 0 -17 10 -8 34 7 17 34 22 34
7z"/>
<path d="M1875 1980 c-44 -21 -89 -47 -99 -58 -17 -20 -17 -21 4 -32 26 -14
90 -7 205 22 108 27 138 21 216 -41 34 -28 67 -51 71 -51 19 0 4 27 -52 90
-47 53 -71 72 -116 88 -83 32 -134 28 -229 -18z"/>
<path d="M1933 1862 c-28 -10 -62 -26 -75 -35 -12 -10 -40 -28 -60 -42 -21
-14 -38 -29 -38 -34 0 -5 18 -12 39 -16 41 -7 67 -27 57 -43 -9 -15 19 -32 76
-48 74 -19 105 -18 118 6 11 21 54 28 65 10 3 -5 -13 -30 -36 -55 -51 -56 -36
-58 35 -5 125 92 135 184 26 258 -41 28 -131 30 -207 4z m7 -91 c0 -26 -15
-34 -40 -21 -31 17 -25 40 10 40 23 0 30 -5 30 -19z m60 -1 c0 -5 -4 -10 -9
-10 -6 0 -13 5 -16 10 -3 6 1 10 9 10 9 0 16 -4 16 -10z m121 -9 l24 -19 -27
-7 c-33 -8 -48 0 -48 26 0 24 21 24 51 0z"/>
<path d="M1712 792 c-13 -10 -20 -21 -16 -25 8 -7 64 23 64 35 0 14 -24 8 -48
-10z"/>
<path d="M1531 739 c-23 -29 -38 -56 -34 -65 5 -13 8 -12 24 2 11 9 19 22 19
28 0 6 11 28 25 49 38 55 13 45 -34 -14z"/>
<path d="M2511 766 c-10 -12 -9 -21 4 -45 21 -41 12 -206 -16 -273 -21 -51
-26 -112 -8 -106 13 4 39 73 39 103 0 11 10 43 22 71 20 51 21 56 7 155 -14
102 -25 123 -48 95z"/>
<path d="M1595 663 l-18 -28 27 24 c28 26 31 31 17 31 -5 0 -17 -12 -26 -27z"/>
<path d="M2645 593 c19 -104 95 -265 128 -271 26 -5 21 32 -8 66 -14 17 -40
77 -59 134 -24 73 -39 104 -51 106 -15 3 -17 -1 -10 -35z"/>
<path d="M1572 568 c-15 -15 -16 -41 0 -36 13 5 31 48 20 48 -5 0 -13 -5 -20
-12z"/>
<path d="M2437 505 c-36 -112 -76 -195 -94 -195 -12 0 -13 8 -8 40 7 40 -8 58
-19 22 -7 -21 -106 -82 -135 -82 -27 0 -36 35 -27 103 4 29 7 61 9 72 5 44
-18 22 -33 -32 -22 -76 -56 -133 -82 -133 -12 0 -18 5 -14 13 22 54 37 124 34
169 -4 76 -22 65 -29 -17 -11 -122 -35 -167 -147 -272 -55 -50 -119 -105 -143
-122 -24 -16 -53 -39 -63 -50 -18 -20 -18 -21 -1 -21 10 0 34 15 55 33 109 94
175 133 199 118 6 -4 19 -40 29 -79 12 -52 21 -72 33 -72 13 0 15 9 11 50 -2
28 1 71 8 96 14 51 63 124 83 124 7 0 26 -13 42 -30 34 -35 46 -37 70 -10 37
41 65 15 101 -93 22 -66 25 -86 16 -109 l-10 -28 68 0 c60 0 69 3 75 20 8 24
14 25 43 4 31 -22 39 -11 16 22 -43 60 -54 89 -54 151 0 34 -5 65 -10 68 -17
10 -20 -17 -12 -90 14 -113 -4 -139 -40 -58 -32 73 -22 166 29 268 46 93 59
153 39 180 -13 17 -16 12 -39 -60z"/>
<path d="M1757 218 c-41 -30 -60 -50 -64 -70 -3 -17 -20 -40 -39 -55 -29 -22
-46 -53 -28 -53 8 0 128 103 133 114 2 5 19 26 37 46 32 35 43 60 27 60 -5 -1
-34 -19 -66 -42z"/>
<path d="M2650 245 c0 -14 66 -94 78 -95 23 0 12 26 -26 63 -35 34 -52 45 -52
32z"/>
</g>
</svg>
